<!--?xml version="1.0" standalone="no"?-->
              <svg id="sw-js-blob-svg" viewBox="0 0 100 100" xmlns="http://www.w3.org/2000/svg" version="1.1">
                    <defs> 
                        <linearGradient id="sw-gradient" x1="0" x2="1" y1="1" y2="0">
                            <stop id="stop1" stop-color="rgba(248, 117, 55, 1)" offset="0%" data-darkreader-inline-stopcolor="" style="--darkreader-inline-stopcolor:#a93a06;"></stop>
                            <stop id="stop2" stop-color="rgba(251, 168, 31, 1)" offset="100%" data-darkreader-inline-stopcolor="" style="--darkreader-inline-stopcolor:#b97403;"></stop>
                        </linearGradient>
                    </defs>
                      <image 
      width="500" 
      height="250" 
      xlink:href="https://www.amrita.edu/sites/default/files/news-images/new/news-events/images/l-nov/grass.jpg" 
      clip-path="url(#circleView)"
    />
                <path fill="url(#sw-gradient)" d="M24.6,-33.4C30.9,-29.3,34.4,-20.8,37,-12.1C39.7,-3.5,41.6,5.3,39.2,12.8C36.9,20.3,30.3,26.4,23,32.4C15.8,38.3,7.9,43.9,0.1,43.7C-7.6,43.5,-15.2,37.4,-21.7,31.3C-28.2,25.1,-33.5,18.9,-35.9,11.7C-38.3,4.4,-37.7,-3.8,-34.4,-10.3C-31.1,-16.8,-25.1,-21.5,-18.9,-25.7C-12.7,-29.9,-6.4,-33.4,1.4,-35.3C9.2,-37.3,18.3,-37.5,24.6,-33.4Z" width="100%" height="100%" transform="translate(50 50)" stroke-width="0" style="transition: all 0.3s ease 0s;"></path>
              </svg>